<svg width="40" height="40" viewBox="0 0 40 40" fill="none" xmlns="http://www.w3.org/2000/svg">
<rect width="40" height="40" rx="5" fill="#5F4DCD"/>
<path fill-rule="evenodd" clip-rule="evenodd" d="M15.1429 17.9415H10.3571C9.65491 17.9356 8.97913 18.2119 8.47848 18.7097C7.97782 19.2075 7.69329 19.886 7.6875 20.5959V30.6418C7.70049 32.1194 8.89548 33.3067 10.3571 33.2944H15.1429C15.8451 33.3003 16.5209 33.024 17.0215 32.5262C17.5222 32.0284 17.8067 31.35 17.8125 30.6401V20.5959C17.8067 19.886 17.5222 19.2075 17.0215 18.7097C16.5209 18.2119 15.8451 17.9356 15.1429 17.9415Z" stroke="#EFEDFF" stroke-width="2" stroke-linecap="round" stroke-linejoin="round"/>
<path fill-rule="evenodd" clip-rule="evenodd" d="M15.1429 7.70806H10.3571C8.92487 7.6679 7.73068 8.80719 7.6875 10.2549V11.9847C7.73068 13.4325 8.92487 14.5718 10.3571 14.5316H15.1429C16.5751 14.5718 17.7693 13.4325 17.8125 11.9847V10.2549C17.7693 8.80719 16.5751 7.6679 15.1429 7.70806Z" stroke="#EFEDFF" stroke-width="2" stroke-linecap="round" stroke-linejoin="round"/>
<path fill-rule="evenodd" clip-rule="evenodd" d="M23.8571 23.0601H28.6412C29.3437 23.0664 30.0199 22.7903 30.5209 22.2924C31.022 21.7946 31.3067 21.1159 31.3125 20.4057V10.3615C31.3067 9.65161 31.0222 8.97315 30.5215 8.47535C30.0209 7.97756 29.3451 7.70122 28.6429 7.70712H23.8571C23.1549 7.70122 22.4791 7.97756 21.9785 8.47535C21.4778 8.97315 21.1933 9.65161 21.1875 10.3615V20.4057C21.1933 21.1156 21.4778 21.794 21.9785 22.2918C22.4791 22.7896 23.1549 23.066 23.8571 23.0601Z" stroke="#EFEDFF" stroke-width="2" stroke-linecap="round" stroke-linejoin="round"/>
<path fill-rule="evenodd" clip-rule="evenodd" d="M23.8571 33.2972H28.6412C30.0741 33.3383 31.2693 32.1988 31.3125 30.7503V29.0206C31.2693 27.5728 30.0751 26.4335 28.6429 26.4737H23.8571C22.4249 26.4335 21.2307 27.5728 21.1875 29.0206V30.7486C21.2298 32.1971 22.4242 33.3374 23.8571 33.2972Z" stroke="#EFEDFF" stroke-width="2" stroke-linecap="round" stroke-linejoin="round"/>
</svg>
