<svg width="1920" height="65" viewBox="0 0 1920 65" fill="none" xmlns="http://www.w3.org/2000/svg">
<mask id="mask0_1_95" style="mask-type:alpha" maskUnits="userSpaceOnUse" x="-1" y="0" width="1921" height="65">
<rect x="-1" width="1921" height="65" fill="url(#paint0_linear_1_95)"/>
</mask>
<g mask="url(#mask0_1_95)">
<path d="M-396.664 46V18.736H-407.416V12.4H-378.136V18.736H-388.888V46H-396.664ZM-364.289 46.384C-367.233 46.384 -369.825 45.808 -372.065 44.656C-374.273 43.504 -375.985 41.936 -377.201 39.952C-378.417 37.936 -379.025 35.648 -379.025 33.088C-379.025 30.496 -378.433 28.208 -377.249 26.224C-376.033 24.208 -374.385 22.64 -372.305 21.52C-370.225 20.368 -367.873 19.792 -365.249 19.792C-362.721 19.792 -360.449 20.336 -358.433 21.424C-356.385 22.48 -354.769 24.016 -353.585 26.032C-352.401 28.016 -351.809 30.4 -351.809 33.184C-351.809 33.472 -351.825 33.808 -351.857 34.192C-351.889 34.544 -351.921 34.88 -351.953 35.2H-372.929V30.832H-355.889L-358.769 32.128C-358.769 30.784 -359.041 29.616 -359.585 28.624C-360.129 27.632 -360.881 26.864 -361.841 26.32C-362.801 25.744 -363.921 25.456 -365.201 25.456C-366.481 25.456 -367.617 25.744 -368.609 26.32C-369.569 26.864 -370.321 27.648 -370.865 28.672C-371.409 29.664 -371.681 30.848 -371.681 32.224V33.376C-371.681 34.784 -371.377 36.032 -370.769 37.12C-370.129 38.176 -369.249 38.992 -368.129 39.568C-366.977 40.112 -365.633 40.384 -364.097 40.384C-362.721 40.384 -361.521 40.176 -360.497 39.76C-359.441 39.344 -358.481 38.72 -357.617 37.888L-353.633 42.208C-354.817 43.552 -356.305 44.592 -358.097 45.328C-359.889 46.032 -361.953 46.384 -364.289 46.384ZM-346.824 46V10.384H-339.336V46H-346.824ZM-319.571 46.384C-322.515 46.384 -325.107 45.808 -327.347 44.656C-329.555 43.504 -331.267 41.936 -332.483 39.952C-333.699 37.936 -334.307 35.648 -334.307 33.088C-334.307 30.496 -333.715 28.208 -332.531 26.224C-331.315 24.208 -329.667 22.64 -327.587 21.52C-325.507 20.368 -323.155 19.792 -320.531 19.792C-318.003 19.792 -315.731 20.336 -313.715 21.424C-311.667 22.48 -310.051 24.016 -308.867 26.032C-307.683 28.016 -307.091 30.4 -307.091 33.184C-307.091 33.472 -307.107 33.808 -307.139 34.192C-307.171 34.544 -307.203 34.88 -307.235 35.2H-328.211V30.832H-311.171L-314.051 32.128C-314.051 30.784 -314.323 29.616 -314.867 28.624C-315.411 27.632 -316.163 26.864 -317.123 26.32C-318.083 25.744 -319.203 25.456 -320.483 25.456C-321.763 25.456 -322.899 25.744 -323.891 26.32C-324.851 26.864 -325.603 27.648 -326.147 28.672C-326.691 29.664 -326.963 30.848 -326.963 32.224V33.376C-326.963 34.784 -326.659 36.032 -326.051 37.12C-325.411 38.176 -324.531 38.992 -323.411 39.568C-322.259 40.112 -320.915 40.384 -319.379 40.384C-318.003 40.384 -316.803 40.176 -315.779 39.76C-314.723 39.344 -313.763 38.72 -312.899 37.888L-308.915 42.208C-310.099 43.552 -311.587 44.592 -313.379 45.328C-315.171 46.032 -317.235 46.384 -319.571 46.384ZM-289.625 46.384C-292.409 46.384 -294.889 45.824 -297.065 44.704C-299.241 43.552 -300.953 41.968 -302.201 39.952C-303.417 37.936 -304.025 35.648 -304.025 33.088C-304.025 30.496 -303.417 28.208 -302.201 26.224C-300.953 24.208 -299.241 22.64 -297.065 21.52C-294.889 20.368 -292.409 19.792 -289.625 19.792C-286.905 19.792 -284.537 20.368 -282.521 21.52C-280.505 22.64 -279.017 24.256 -278.057 26.368L-283.865 29.488C-284.537 28.272 -285.385 27.376 -286.409 26.8C-287.401 26.224 -288.489 25.936 -289.673 25.936C-290.953 25.936 -292.105 26.224 -293.129 26.8C-294.153 27.376 -294.969 28.192 -295.577 29.248C-296.153 30.304 -296.441 31.584 -296.441 33.088C-296.441 34.592 -296.153 35.872 -295.577 36.928C-294.969 37.984 -294.153 38.8 -293.129 39.376C-292.105 39.952 -290.953 40.24 -289.673 40.24C-288.489 40.24 -287.401 39.968 -286.409 39.424C-285.385 38.848 -284.537 37.936 -283.865 36.688L-278.057 39.856C-279.017 41.936 -280.505 43.552 -282.521 44.704C-284.537 45.824 -286.905 46.384 -289.625 46.384ZM-261.786 46.384C-264.538 46.384 -266.986 45.808 -269.13 44.656C-271.242 43.504 -272.922 41.936 -274.17 39.952C-275.386 37.936 -275.994 35.648 -275.994 33.088C-275.994 30.496 -275.386 28.208 -274.17 26.224C-272.922 24.208 -271.242 22.64 -269.13 21.52C-266.986 20.368 -264.538 19.792 -261.786 19.792C-259.066 19.792 -256.634 20.368 -254.49 21.52C-252.346 22.64 -250.666 24.192 -249.45 26.176C-248.234 28.16 -247.626 30.464 -247.626 33.088C-247.626 35.648 -248.234 37.936 -249.45 39.952C-250.666 41.936 -252.346 43.504 -254.49 44.656C-256.634 45.808 -259.066 46.384 -261.786 46.384ZM-261.786 40.24C-260.538 40.24 -259.418 39.952 -258.426 39.376C-257.434 38.8 -256.65 37.984 -256.074 36.928C-255.498 35.84 -255.21 34.56 -255.21 33.088C-255.21 31.584 -255.498 30.304 -256.074 29.248C-256.65 28.192 -257.434 27.376 -258.426 26.8C-259.418 26.224 -260.538 25.936 -261.786 25.936C-263.034 25.936 -264.154 26.224 -265.146 26.8C-266.138 27.376 -266.938 28.192 -267.546 29.248C-268.122 30.304 -268.41 31.584 -268.41 33.088C-268.41 34.56 -268.122 35.84 -267.546 36.928C-266.938 37.984 -266.138 38.8 -265.146 39.376C-264.154 39.952 -263.034 40.24 -261.786 40.24ZM-209.549 19.792C-207.501 19.792 -205.693 20.208 -204.125 21.04C-202.525 21.84 -201.277 23.088 -200.381 24.784C-199.453 26.448 -198.989 28.592 -198.989 31.216V46H-206.477V32.368C-206.477 30.288 -206.909 28.752 -207.773 27.76C-208.637 26.768 -209.853 26.272 -211.421 26.272C-212.509 26.272 -213.485 26.528 -214.349 27.04C-215.213 27.52 -215.885 28.256 -216.365 29.248C-216.845 30.24 -217.085 31.504 -217.085 33.04V46H-224.573V32.368C-224.573 30.288 -225.005 28.752 -225.869 27.76C-226.701 26.768 -227.901 26.272 -229.469 26.272C-230.557 26.272 -231.533 26.528 -232.397 27.04C-233.261 27.52 -233.933 28.256 -234.413 29.248C-234.893 30.24 -235.133 31.504 -235.133 33.04V46H-242.621V20.176H-235.469V27.232L-236.813 25.168C-235.917 23.408 -234.653 22.08 -233.021 21.184C-231.357 20.256 -229.469 19.792 -227.357 19.792C-224.989 19.792 -222.925 20.4 -221.165 21.616C-219.373 22.8 -218.189 24.624 -217.613 27.088L-220.253 26.368C-219.389 24.352 -218.013 22.752 -216.125 21.568C-214.205 20.384 -212.013 19.792 -209.549 19.792ZM-159.205 19.792C-157.157 19.792 -155.349 20.208 -153.781 21.04C-152.181 21.84 -150.933 23.088 -150.037 24.784C-149.109 26.448 -148.645 28.592 -148.645 31.216V46H-156.133V32.368C-156.133 30.288 -156.565 28.752 -157.429 27.76C-158.293 26.768 -159.509 26.272 -161.077 26.272C-162.165 26.272 -163.141 26.528 -164.005 27.04C-164.869 27.52 -165.541 28.256 -166.021 29.248C-166.501 30.24 -166.741 31.504 -166.741 33.04V46H-174.229V32.368C-174.229 30.288 -174.661 28.752 -175.525 27.76C-176.357 26.768 -177.557 26.272 -179.125 26.272C-180.213 26.272 -181.189 26.528 -182.053 27.04C-182.917 27.52 -183.589 28.256 -184.069 29.248C-184.549 30.24 -184.789 31.504 -184.789 33.04V46H-192.277V20.176H-185.125V27.232L-186.469 25.168C-185.573 23.408 -184.309 22.08 -182.677 21.184C-181.013 20.256 -179.125 19.792 -177.013 19.792C-174.645 19.792 -172.581 20.4 -170.821 21.616C-169.029 22.8 -167.845 24.624 -167.269 27.088L-169.909 26.368C-169.045 24.352 -167.669 22.752 -165.781 21.568C-163.861 20.384 -161.669 19.792 -159.205 19.792ZM-131.037 46.384C-133.181 46.384 -135.101 45.968 -136.797 45.136C-138.461 44.304 -139.757 43.04 -140.685 41.344C-141.613 39.616 -142.077 37.424 -142.077 34.768V20.176H-134.589V33.664C-134.589 35.808 -134.141 37.392 -133.245 38.416C-132.317 39.408 -131.021 39.904 -129.357 39.904C-128.205 39.904 -127.181 39.664 -126.285 39.184C-125.389 38.672 -124.685 37.904 -124.173 36.88C-123.661 35.824 -123.405 34.512 -123.405 32.944V20.176H-115.917V46H-123.021V38.896L-121.725 40.96C-122.589 42.752 -123.869 44.112 -125.565 45.04C-127.229 45.936 -129.053 46.384 -131.037 46.384ZM-93.2843 19.792C-91.2363 19.792 -89.4123 20.208 -87.8123 21.04C-86.1803 21.84 -84.9003 23.088 -83.9723 24.784C-83.0443 26.448 -82.5803 28.592 -82.5803 31.216V46H-90.0683V32.368C-90.0683 30.288 -90.5323 28.752 -91.4603 27.76C-92.3563 26.768 -93.6363 26.272 -95.3003 26.272C-96.4843 26.272 -97.5563 26.528 -98.5163 27.04C-99.4443 27.52 -100.18 28.272 -100.724 29.296C-101.236 30.32 -101.492 31.632 -101.492 33.232V46H-108.98V20.176H-101.828V27.328L-103.172 25.168C-102.244 23.44 -100.916 22.112 -99.1883 21.184C-97.4603 20.256 -95.4923 19.792 -93.2843 19.792ZM-75.7928 46V20.176H-68.3048V46H-75.7928ZM-72.0488 16.576C-73.4248 16.576 -74.5448 16.176 -75.4088 15.376C-76.2728 14.576 -76.7048 13.584 -76.7048 12.4C-76.7048 11.216 -76.2728 10.224 -75.4088 9.424C-74.5448 8.624 -73.4248 8.224 -72.0488 8.224C-70.6728 8.224 -69.5528 8.608 -68.6888 9.376C-67.8248 10.112 -67.3928 11.072 -67.3928 12.256C-67.3928 13.504 -67.8248 14.544 -68.6888 15.376C-69.5208 16.176 -70.6408 16.576 -72.0488 16.576ZM-48.8753 46.384C-51.6593 46.384 -54.1393 45.824 -56.3153 44.704C-58.4913 43.552 -60.2033 41.968 -61.4513 39.952C-62.6673 37.936 -63.2753 35.648 -63.2753 33.088C-63.2753 30.496 -62.6673 28.208 -61.4513 26.224C-60.2033 24.208 -58.4913 22.64 -56.3153 21.52C-54.1393 20.368 -51.6593 19.792 -48.8753 19.792C-46.1553 19.792 -43.7873 20.368 -41.7713 21.52C-39.7553 22.64 -38.2673 24.256 -37.3073 26.368L-43.1153 29.488C-43.7873 28.272 -44.6353 27.376 -45.6593 26.8C-46.6513 26.224 -47.7393 25.936 -48.9233 25.936C-50.2033 25.936 -51.3553 26.224 -52.3793 26.8C-53.4033 27.376 -54.2193 28.192 -54.8273 29.248C-55.4033 30.304 -55.6913 31.584 -55.6913 33.088C-55.6913 34.592 -55.4033 35.872 -54.8273 36.928C-54.2193 37.984 -53.4033 38.8 -52.3793 39.376C-51.3553 39.952 -50.2033 40.24 -48.9233 40.24C-47.7393 40.24 -46.6513 39.968 -45.6593 39.424C-44.6353 38.848 -43.7873 37.936 -43.1153 36.688L-37.3073 39.856C-38.2673 41.936 -39.7553 43.552 -41.7713 44.704C-43.7873 45.824 -46.1553 46.384 -48.8753 46.384ZM-17.1559 46V40.96L-17.6359 39.856V30.832C-17.6359 29.232 -18.1319 27.984 -19.1239 27.088C-20.0839 26.192 -21.5719 25.744 -23.5879 25.744C-24.9639 25.744 -26.3239 25.968 -27.6679 26.416C-28.9799 26.832 -30.0999 27.408 -31.0279 28.144L-33.7159 22.912C-32.3079 21.92 -30.6119 21.152 -28.6279 20.608C-26.6439 20.064 -24.6279 19.792 -22.5799 19.792C-18.6439 19.792 -15.5879 20.72 -13.4119 22.576C-11.2359 24.432 -10.1479 27.328 -10.1479 31.264V46H-17.1559ZM-25.0279 46.384C-27.0439 46.384 -28.7719 46.048 -30.2119 45.376C-31.6519 44.672 -32.7559 43.728 -33.5239 42.544C-34.2919 41.36 -34.6759 40.032 -34.6759 38.56C-34.6759 37.024 -34.3079 35.68 -33.5719 34.528C-32.8039 33.376 -31.6039 32.48 -29.9719 31.84C-28.3399 31.168 -26.2119 30.832 -23.5879 30.832H-16.7239V35.2H-22.7719C-24.5319 35.2 -25.7479 35.488 -26.4199 36.064C-27.0599 36.64 -27.3799 37.36 -27.3799 38.224C-27.3799 39.184 -27.0119 39.952 -26.2759 40.528C-25.5079 41.072 -24.4679 41.344 -23.1559 41.344C-21.9079 41.344 -20.7879 41.056 -19.7959 40.48C-18.8039 39.872 -18.0839 38.992 -17.6359 37.84L-16.4839 41.296C-17.0279 42.96 -18.0199 44.224 -19.4599 45.088C-20.8999 45.952 -22.7559 46.384 -25.0279 46.384ZM7.1891 46.384C4.1491 46.384 1.7811 45.616 0.0850961 44.08C-1.6109 42.512 -2.4589 40.192 -2.4589 37.12V14.464H5.0291V37.024C5.0291 38.112 5.3171 38.96 5.8931 39.568C6.4691 40.144 7.2531 40.432 8.2451 40.432C9.4291 40.432 10.4371 40.112 11.2691 39.472L13.2851 44.752C12.5171 45.296 11.5891 45.712 10.5011 46C9.4451 46.256 8.3411 46.384 7.1891 46.384ZM-6.4429 26.512V20.752H11.4611V26.512H-6.4429ZM17.4885 46V20.176H24.9765V46H17.4885ZM21.2325 16.576C19.8565 16.576 18.7365 16.176 17.8725 15.376C17.0085 14.576 16.5765 13.584 16.5765 12.4C16.5765 11.216 17.0085 10.224 17.8725 9.424C18.7365 8.624 19.8565 8.224 21.2325 8.224C22.6085 8.224 23.7285 8.608 24.5925 9.376C25.4565 10.112 25.8885 11.072 25.8885 12.256C25.8885 13.504 25.4565 14.544 24.5925 15.376C23.7605 16.176 22.6405 16.576 21.2325 16.576ZM44.214 46.384C41.462 46.384 39.014 45.808 36.87 44.656C34.758 43.504 33.078 41.936 31.83 39.952C30.614 37.936 30.006 35.648 30.006 33.088C30.006 30.496 30.614 28.208 31.83 26.224C33.078 24.208 34.758 22.64 36.87 21.52C39.014 20.368 41.462 19.792 44.214 19.792C46.934 19.792 49.366 20.368 51.51 21.52C53.654 22.64 55.334 24.192 56.55 26.176C57.766 28.16 58.374 30.464 58.374 33.088C58.374 35.648 57.766 37.936 56.55 39.952C55.334 41.936 53.654 43.504 51.51 44.656C49.366 45.808 46.934 46.384 44.214 46.384ZM44.214 40.24C45.462 40.24 46.582 39.952 47.574 39.376C48.566 38.8 49.35 37.984 49.926 36.928C50.502 35.84 50.79 34.56 50.79 33.088C50.79 31.584 50.502 30.304 49.926 29.248C49.35 28.192 48.566 27.376 47.574 26.8C46.582 26.224 45.462 25.936 44.214 25.936C42.966 25.936 41.846 26.224 40.854 26.8C39.862 27.376 39.062 28.192 38.454 29.248C37.878 30.304 37.59 31.584 37.59 33.088C37.59 34.56 37.878 35.84 38.454 36.928C39.062 37.984 39.862 38.8 40.854 39.376C41.846 39.952 42.966 40.24 44.214 40.24ZM79.0751 19.792C81.1231 19.792 82.9471 20.208 84.5471 21.04C86.1791 21.84 87.4591 23.088 88.3871 24.784C89.3151 26.448 89.7791 28.592 89.7791 31.216V46H82.2911V32.368C82.2911 30.288 81.8271 28.752 80.8991 27.76C80.0031 26.768 78.7231 26.272 77.0591 26.272C75.8751 26.272 74.8031 26.528 73.8431 27.04C72.9151 27.52 72.1791 28.272 71.6351 29.296C71.1231 30.32 70.8671 31.632 70.8671 33.232V46H63.3791V20.176H70.5311V27.328L69.1871 25.168C70.1151 23.44 71.4431 22.112 73.1711 21.184C74.8991 20.256 76.8671 19.792 79.0751 19.792ZM105.255 46.384C103.047 46.384 100.919 46.128 98.8706 45.616C96.8546 45.072 95.2546 44.4 94.0706 43.6L96.5666 38.224C97.7506 38.96 99.1426 39.568 100.743 40.048C102.375 40.496 103.975 40.72 105.543 40.72C107.271 40.72 108.487 40.512 109.191 40.096C109.927 39.68 110.295 39.104 110.295 38.368C110.295 37.76 110.007 37.312 109.431 37.024C108.887 36.704 108.151 36.464 107.223 36.304C106.295 36.144 105.271 35.984 104.151 35.824C103.063 35.664 101.959 35.456 100.839 35.2C99.7186 34.912 98.6946 34.496 97.7666 33.952C96.8386 33.408 96.0866 32.672 95.5106 31.744C94.9666 30.816 94.6946 29.616 94.6946 28.144C94.6946 26.512 95.1586 25.072 96.0866 23.824C97.0466 22.576 98.4226 21.6 100.215 20.896C102.007 20.16 104.151 19.792 106.647 19.792C108.407 19.792 110.199 19.984 112.023 20.368C113.847 20.752 115.367 21.312 116.583 22.048L114.087 27.376C112.839 26.64 111.575 26.144 110.295 25.888C109.047 25.6 107.831 25.456 106.647 25.456C104.983 25.456 103.767 25.68 102.999 26.128C102.231 26.576 101.847 27.152 101.847 27.856C101.847 28.496 102.119 28.976 102.663 29.296C103.239 29.616 103.991 29.872 104.919 30.064C105.847 30.256 106.855 30.432 107.943 30.592C109.063 30.72 110.183 30.928 111.303 31.216C112.423 31.504 113.431 31.92 114.327 32.464C115.255 32.976 116.007 33.696 116.583 34.624C117.159 35.52 117.447 36.704 117.447 38.176C117.447 39.776 116.967 41.2 116.007 42.448C115.047 43.664 113.655 44.624 111.831 45.328C110.039 46.032 107.847 46.384 105.255 46.384Z" fill="white"/>
<path d="M183.173 46V12.4H199.589C203.813 12.4 206.981 13.2 209.093 14.8C211.237 16.4 212.309 18.512 212.309 21.136C212.309 22.896 211.877 24.432 211.013 25.744C210.149 27.024 208.965 28.016 207.461 28.72C205.957 29.424 204.229 29.776 202.277 29.776L203.189 27.808C205.301 27.808 207.173 28.16 208.805 28.864C210.437 29.536 211.701 30.544 212.597 31.888C213.525 33.232 213.989 34.88 213.989 36.832C213.989 39.712 212.853 41.968 210.581 43.6C208.309 45.2 204.965 46 200.549 46H183.173ZM190.901 40.144H199.973C201.989 40.144 203.509 39.824 204.533 39.184C205.589 38.512 206.117 37.456 206.117 36.016C206.117 34.608 205.589 33.568 204.533 32.896C203.509 32.192 201.989 31.84 199.973 31.84H190.325V26.176H198.629C200.517 26.176 201.957 25.856 202.949 25.216C203.973 24.544 204.485 23.536 204.485 22.192C204.485 20.88 203.973 19.904 202.949 19.264C201.957 18.592 200.517 18.256 198.629 18.256H190.901V40.144ZM235.188 46V40.96L234.708 39.856V30.832C234.708 29.232 234.212 27.984 233.22 27.088C232.26 26.192 230.772 25.744 228.756 25.744C227.38 25.744 226.02 25.968 224.676 26.416C223.364 26.832 222.244 27.408 221.316 28.144L218.628 22.912C220.036 21.92 221.732 21.152 223.716 20.608C225.7 20.064 227.716 19.792 229.764 19.792C233.7 19.792 236.756 20.72 238.932 22.576C241.108 24.432 242.196 27.328 242.196 31.264V46H235.188ZM227.316 46.384C225.3 46.384 223.572 46.048 222.132 45.376C220.692 44.672 219.588 43.728 218.82 42.544C218.052 41.36 217.668 40.032 217.668 38.56C217.668 37.024 218.036 35.68 218.772 34.528C219.54 33.376 220.74 32.48 222.372 31.84C224.004 31.168 226.132 30.832 228.756 30.832H235.62V35.2H229.572C227.812 35.2 226.596 35.488 225.924 36.064C225.284 36.64 224.964 37.36 224.964 38.224C224.964 39.184 225.332 39.952 226.068 40.528C226.836 41.072 227.876 41.344 229.188 41.344C230.436 41.344 231.556 41.056 232.548 40.48C233.54 39.872 234.26 38.992 234.708 37.84L235.86 41.296C235.316 42.96 234.324 44.224 232.884 45.088C231.444 45.952 229.588 46.384 227.316 46.384ZM264.669 19.792C266.717 19.792 268.541 20.208 270.141 21.04C271.773 21.84 273.053 23.088 273.981 24.784C274.909 26.448 275.373 28.592 275.373 31.216V46H267.885V32.368C267.885 30.288 267.421 28.752 266.493 27.76C265.597 26.768 264.317 26.272 262.653 26.272C261.469 26.272 260.397 26.528 259.437 27.04C258.509 27.52 257.773 28.272 257.229 29.296C256.717 30.32 256.461 31.632 256.461 33.232V46H248.973V20.176H256.125V27.328L254.781 25.168C255.709 23.44 257.037 22.112 258.765 21.184C260.493 20.256 262.461 19.792 264.669 19.792ZM288.352 40.72L288.544 31.6L300.592 20.176H309.52L297.952 31.936L294.064 35.104L288.352 40.72ZM282.16 46V10.384H289.648V46H282.16ZM301.408 46L292.672 35.152L297.376 29.344L310.48 46H301.408ZM313.848 46V20.176H321.336V46H313.848ZM317.592 16.576C316.216 16.576 315.096 16.176 314.232 15.376C313.368 14.576 312.936 13.584 312.936 12.4C312.936 11.216 313.368 10.224 314.232 9.424C315.096 8.624 316.216 8.224 317.592 8.224C318.968 8.224 320.088 8.608 320.952 9.376C321.816 10.112 322.248 11.072 322.248 12.256C322.248 13.504 321.816 14.544 320.952 15.376C320.12 16.176 319 16.576 317.592 16.576ZM343.981 19.792C346.029 19.792 347.853 20.208 349.453 21.04C351.085 21.84 352.365 23.088 353.293 24.784C354.221 26.448 354.685 28.592 354.685 31.216V46H347.197V32.368C347.197 30.288 346.733 28.752 345.805 27.76C344.909 26.768 343.629 26.272 341.965 26.272C340.781 26.272 339.709 26.528 338.749 27.04C337.821 27.52 337.085 28.272 336.541 29.296C336.029 30.32 335.773 31.632 335.773 33.232V46H328.285V20.176H335.437V27.328L334.093 25.168C335.021 23.44 336.349 22.112 338.077 21.184C339.805 20.256 341.773 19.792 343.981 19.792ZM373.804 55.696C371.372 55.696 369.02 55.392 366.748 54.784C364.508 54.208 362.636 53.328 361.132 52.144L364.108 46.768C365.196 47.664 366.572 48.368 368.236 48.88C369.932 49.424 371.596 49.696 373.228 49.696C375.884 49.696 377.804 49.104 378.988 47.92C380.204 46.736 380.812 44.976 380.812 42.64V38.752L381.292 32.272L381.196 25.744V20.176H388.3V41.68C388.3 46.48 387.052 50.016 384.556 52.288C382.06 54.56 378.476 55.696 373.804 55.696ZM372.652 44.752C370.252 44.752 368.076 44.24 366.124 43.216C364.204 42.16 362.652 40.704 361.468 38.848C360.316 36.96 359.74 34.768 359.74 32.272C359.74 29.744 360.316 27.552 361.468 25.696C362.652 23.808 364.204 22.352 366.124 21.328C368.076 20.304 370.252 19.792 372.652 19.792C374.828 19.792 376.748 20.24 378.412 21.136C380.076 22 381.372 23.36 382.3 25.216C383.228 27.04 383.692 29.392 383.692 32.272C383.692 35.12 383.228 37.472 382.3 39.328C381.372 41.152 380.076 42.512 378.412 43.408C376.748 44.304 374.828 44.752 372.652 44.752ZM374.14 38.608C375.452 38.608 376.62 38.352 377.644 37.84C378.668 37.296 379.468 36.544 380.044 35.584C380.62 34.624 380.908 33.52 380.908 32.272C380.908 30.992 380.62 29.888 380.044 28.96C379.468 28 378.668 27.264 377.644 26.752C376.62 26.208 375.452 25.936 374.14 25.936C372.828 25.936 371.66 26.208 370.636 26.752C369.612 27.264 368.796 28 368.188 28.96C367.612 29.888 367.324 30.992 367.324 32.272C367.324 33.52 367.612 34.624 368.188 35.584C368.796 36.544 369.612 37.296 370.636 37.84C371.66 38.352 372.828 38.608 374.14 38.608Z" fill="white"/>
<path d="M456.196 46V12.4H463.972V39.664H480.82V46H456.196ZM497.312 46.384C494.368 46.384 491.776 45.808 489.536 44.656C487.328 43.504 485.616 41.936 484.4 39.952C483.184 37.936 482.576 35.648 482.576 33.088C482.576 30.496 483.168 28.208 484.352 26.224C485.568 24.208 487.216 22.64 489.296 21.52C491.376 20.368 493.728 19.792 496.352 19.792C498.88 19.792 501.152 20.336 503.168 21.424C505.216 22.48 506.832 24.016 508.016 26.032C509.2 28.016 509.792 30.4 509.792 33.184C509.792 33.472 509.776 33.808 509.744 34.192C509.712 34.544 509.68 34.88 509.648 35.2H488.672V30.832H505.712L502.832 32.128C502.832 30.784 502.56 29.616 502.016 28.624C501.472 27.632 500.72 26.864 499.76 26.32C498.8 25.744 497.68 25.456 496.4 25.456C495.12 25.456 493.984 25.744 492.992 26.32C492.032 26.864 491.28 27.648 490.736 28.672C490.192 29.664 489.92 30.848 489.92 32.224V33.376C489.92 34.784 490.224 36.032 490.832 37.12C491.472 38.176 492.352 38.992 493.472 39.568C494.624 40.112 495.968 40.384 497.504 40.384C498.88 40.384 500.08 40.176 501.104 39.76C502.16 39.344 503.12 38.72 503.984 37.888L507.968 42.208C506.784 43.552 505.296 44.592 503.504 45.328C501.712 46.032 499.648 46.384 497.312 46.384ZM526.922 55.696C524.49 55.696 522.138 55.392 519.866 54.784C517.626 54.208 515.754 53.328 514.25 52.144L517.226 46.768C518.314 47.664 519.69 48.368 521.354 48.88C523.05 49.424 524.714 49.696 526.346 49.696C529.002 49.696 530.922 49.104 532.106 47.92C533.322 46.736 533.93 44.976 533.93 42.64V38.752L534.41 32.272L534.314 25.744V20.176H541.418V41.68C541.418 46.48 540.17 50.016 537.674 52.288C535.178 54.56 531.594 55.696 526.922 55.696ZM525.77 44.752C523.37 44.752 521.194 44.24 519.242 43.216C517.322 42.16 515.77 40.704 514.586 38.848C513.434 36.96 512.858 34.768 512.858 32.272C512.858 29.744 513.434 27.552 514.586 25.696C515.77 23.808 517.322 22.352 519.242 21.328C521.194 20.304 523.37 19.792 525.77 19.792C527.946 19.792 529.866 20.24 531.53 21.136C533.194 22 534.49 23.36 535.418 25.216C536.346 27.04 536.81 29.392 536.81 32.272C536.81 35.12 536.346 37.472 535.418 39.328C534.49 41.152 533.194 42.512 531.53 43.408C529.866 44.304 527.946 44.752 525.77 44.752ZM527.258 38.608C528.57 38.608 529.738 38.352 530.762 37.84C531.786 37.296 532.586 36.544 533.162 35.584C533.738 34.624 534.026 33.52 534.026 32.272C534.026 30.992 533.738 29.888 533.162 28.96C532.586 28 531.786 27.264 530.762 26.752C529.738 26.208 528.57 25.936 527.258 25.936C525.946 25.936 524.778 26.208 523.754 26.752C522.73 27.264 521.914 28 521.306 28.96C520.73 29.888 520.442 30.992 520.442 32.272C520.442 33.52 520.73 34.624 521.306 35.584C521.914 36.544 522.73 37.296 523.754 37.84C524.778 38.352 525.946 38.608 527.258 38.608ZM564.227 46V40.96L563.747 39.856V30.832C563.747 29.232 563.251 27.984 562.259 27.088C561.299 26.192 559.811 25.744 557.795 25.744C556.419 25.744 555.059 25.968 553.715 26.416C552.403 26.832 551.283 27.408 550.355 28.144L547.667 22.912C549.075 21.92 550.771 21.152 552.755 20.608C554.739 20.064 556.755 19.792 558.803 19.792C562.739 19.792 565.795 20.72 567.971 22.576C570.147 24.432 571.235 27.328 571.235 31.264V46H564.227ZM556.355 46.384C554.339 46.384 552.611 46.048 551.171 45.376C549.731 44.672 548.627 43.728 547.859 42.544C547.091 41.36 546.707 40.032 546.707 38.56C546.707 37.024 547.075 35.68 547.811 34.528C548.579 33.376 549.779 32.48 551.411 31.84C553.043 31.168 555.171 30.832 557.795 30.832H564.659V35.2H558.611C556.851 35.2 555.635 35.488 554.963 36.064C554.323 36.64 554.003 37.36 554.003 38.224C554.003 39.184 554.371 39.952 555.107 40.528C555.875 41.072 556.915 41.344 558.227 41.344C559.475 41.344 560.595 41.056 561.587 40.48C562.579 39.872 563.299 38.992 563.747 37.84L564.899 41.296C564.355 42.96 563.363 44.224 561.923 45.088C560.483 45.952 558.627 46.384 556.355 46.384ZM578.012 46V10.384H585.5V46H578.012ZM617.611 46.576C614.923 46.576 612.347 46.224 609.883 45.52C607.419 44.784 605.435 43.84 603.931 42.688L606.571 36.832C608.011 37.856 609.707 38.704 611.659 39.376C613.643 40.016 615.643 40.336 617.659 40.336C619.195 40.336 620.427 40.192 621.355 39.904C622.315 39.584 623.019 39.152 623.467 38.608C623.915 38.064 624.139 37.44 624.139 36.736C624.139 35.84 623.787 35.136 623.083 34.624C622.379 34.08 621.451 33.648 620.299 33.328C619.147 32.976 617.867 32.656 616.459 32.368C615.083 32.048 613.691 31.664 612.283 31.216C610.907 30.768 609.643 30.192 608.491 29.488C607.339 28.784 606.395 27.856 605.659 26.704C604.955 25.552 604.603 24.08 604.603 22.288C604.603 20.368 605.115 18.624 606.139 17.056C607.195 15.456 608.763 14.192 610.843 13.264C612.955 12.304 615.595 11.824 618.763 11.824C620.875 11.824 622.955 12.08 625.003 12.592C627.051 13.072 628.859 13.808 630.427 14.8L628.027 20.704C626.459 19.808 624.891 19.152 623.323 18.736C621.755 18.288 620.219 18.064 618.715 18.064C617.211 18.064 615.979 18.24 615.019 18.592C614.059 18.944 613.371 19.408 612.955 19.984C612.539 20.528 612.331 21.168 612.331 21.904C612.331 22.768 612.683 23.472 613.387 24.016C614.091 24.528 615.019 24.944 616.171 25.264C617.323 25.584 618.587 25.904 619.963 26.224C621.371 26.544 622.763 26.912 624.139 27.328C625.547 27.744 626.827 28.304 627.979 29.008C629.131 29.712 630.059 30.64 630.763 31.792C631.499 32.944 631.867 34.4 631.867 36.16C631.867 38.048 631.339 39.776 630.283 41.344C629.227 42.912 627.643 44.176 625.531 45.136C623.451 46.096 620.811 46.576 617.611 46.576ZM649.469 46.384C646.525 46.384 643.933 45.808 641.693 44.656C639.485 43.504 637.773 41.936 636.557 39.952C635.341 37.936 634.733 35.648 634.733 33.088C634.733 30.496 635.325 28.208 636.509 26.224C637.725 24.208 639.373 22.64 641.453 21.52C643.533 20.368 645.885 19.792 648.509 19.792C651.037 19.792 653.309 20.336 655.325 21.424C657.373 22.48 658.989 24.016 660.173 26.032C661.357 28.016 661.949 30.4 661.949 33.184C661.949 33.472 661.933 33.808 661.901 34.192C661.869 34.544 661.837 34.88 661.805 35.2H640.829V30.832H657.869L654.989 32.128C654.989 30.784 654.717 29.616 654.173 28.624C653.629 27.632 652.877 26.864 651.917 26.32C650.957 25.744 649.837 25.456 648.557 25.456C647.277 25.456 646.141 25.744 645.149 26.32C644.189 26.864 643.437 27.648 642.893 28.672C642.349 29.664 642.077 30.848 642.077 32.224V33.376C642.077 34.784 642.381 36.032 642.989 37.12C643.629 38.176 644.509 38.992 645.629 39.568C646.781 40.112 648.125 40.384 649.661 40.384C651.037 40.384 652.237 40.176 653.261 39.76C654.317 39.344 655.277 38.72 656.141 37.888L660.125 42.208C658.941 43.552 657.453 44.592 655.661 45.328C653.869 46.032 651.805 46.384 649.469 46.384ZM666.934 46V20.176H674.086V27.472L673.078 25.36C673.846 23.536 675.078 22.16 676.774 21.232C678.47 20.272 680.534 19.792 682.966 19.792V26.704C682.646 26.672 682.358 26.656 682.102 26.656C681.846 26.624 681.574 26.608 681.286 26.608C679.238 26.608 677.574 27.2 676.294 28.384C675.046 29.536 674.422 31.344 674.422 33.808V46H666.934ZM695.317 46L684.469 20.176H692.197L701.221 42.4H697.381L706.741 20.176H713.941L703.045 46H695.317ZM716.996 46V20.176H724.484V46H716.996ZM720.74 16.576C719.364 16.576 718.244 16.176 717.38 15.376C716.516 14.576 716.084 13.584 716.084 12.4C716.084 11.216 716.516 10.224 717.38 9.424C718.244 8.624 719.364 8.224 720.74 8.224C722.116 8.224 723.236 8.608 724.1 9.376C724.964 10.112 725.396 11.072 725.396 12.256C725.396 13.504 724.964 14.544 724.1 15.376C723.268 16.176 722.148 16.576 720.74 16.576ZM743.914 46.384C741.13 46.384 738.65 45.824 736.474 44.704C734.298 43.552 732.586 41.968 731.338 39.952C730.122 37.936 729.514 35.648 729.514 33.088C729.514 30.496 730.122 28.208 731.338 26.224C732.586 24.208 734.298 22.64 736.474 21.52C738.65 20.368 741.13 19.792 743.914 19.792C746.634 19.792 749.002 20.368 751.018 21.52C753.034 22.64 754.522 24.256 755.482 26.368L749.674 29.488C749.002 28.272 748.154 27.376 747.13 26.8C746.138 26.224 745.05 25.936 743.866 25.936C742.586 25.936 741.434 26.224 740.41 26.8C739.386 27.376 738.57 28.192 737.962 29.248C737.386 30.304 737.098 31.584 737.098 33.088C737.098 34.592 737.386 35.872 737.962 36.928C738.57 37.984 739.386 38.8 740.41 39.376C741.434 39.952 742.586 40.24 743.866 40.24C745.05 40.24 746.138 39.968 747.13 39.424C748.154 38.848 749.002 37.936 749.674 36.688L755.482 39.856C754.522 41.936 753.034 43.552 751.018 44.704C749.002 45.824 746.634 46.384 743.914 46.384ZM772.281 46.384C769.337 46.384 766.745 45.808 764.505 44.656C762.297 43.504 760.585 41.936 759.369 39.952C758.153 37.936 757.545 35.648 757.545 33.088C757.545 30.496 758.137 28.208 759.321 26.224C760.537 24.208 762.185 22.64 764.265 21.52C766.345 20.368 768.697 19.792 771.321 19.792C773.849 19.792 776.121 20.336 778.137 21.424C780.185 22.48 781.801 24.016 782.985 26.032C784.169 28.016 784.761 30.4 784.761 33.184C784.761 33.472 784.745 33.808 784.713 34.192C784.681 34.544 784.649 34.88 784.617 35.2H763.641V30.832H780.681L777.801 32.128C777.801 30.784 777.529 29.616 776.985 28.624C776.441 27.632 775.689 26.864 774.729 26.32C773.769 25.744 772.649 25.456 771.369 25.456C770.089 25.456 768.953 25.744 767.961 26.32C767.001 26.864 766.249 27.648 765.705 28.672C765.161 29.664 764.889 30.848 764.889 32.224V33.376C764.889 34.784 765.193 36.032 765.801 37.12C766.441 38.176 767.321 38.992 768.441 39.568C769.593 40.112 770.937 40.384 772.473 40.384C773.849 40.384 775.049 40.176 776.073 39.76C777.129 39.344 778.089 38.72 778.953 37.888L782.937 42.208C781.753 43.552 780.265 44.592 778.473 45.328C776.681 46.032 774.617 46.384 772.281 46.384ZM798.434 46.384C796.226 46.384 794.098 46.128 792.05 45.616C790.034 45.072 788.434 44.4 787.25 43.6L789.746 38.224C790.93 38.96 792.322 39.568 793.922 40.048C795.554 40.496 797.154 40.72 798.722 40.72C800.45 40.72 801.666 40.512 802.37 40.096C803.106 39.68 803.474 39.104 803.474 38.368C803.474 37.76 803.186 37.312 802.61 37.024C802.066 36.704 801.33 36.464 800.402 36.304C799.474 36.144 798.45 35.984 797.33 35.824C796.242 35.664 795.138 35.456 794.018 35.2C792.898 34.912 791.874 34.496 790.946 33.952C790.018 33.408 789.266 32.672 788.69 31.744C788.146 30.816 787.874 29.616 787.874 28.144C787.874 26.512 788.338 25.072 789.266 23.824C790.226 22.576 791.602 21.6 793.394 20.896C795.186 20.16 797.33 19.792 799.826 19.792C801.586 19.792 803.378 19.984 805.202 20.368C807.026 20.752 808.546 21.312 809.762 22.048L807.266 27.376C806.018 26.64 804.754 26.144 803.474 25.888C802.226 25.6 801.01 25.456 799.826 25.456C798.162 25.456 796.946 25.68 796.178 26.128C795.41 26.576 795.026 27.152 795.026 27.856C795.026 28.496 795.298 28.976 795.842 29.296C796.418 29.616 797.17 29.872 798.098 30.064C799.026 30.256 800.034 30.432 801.122 30.592C802.242 30.72 803.362 30.928 804.482 31.216C805.602 31.504 806.61 31.92 807.506 32.464C808.434 32.976 809.186 33.696 809.762 34.624C810.338 35.52 810.626 36.704 810.626 38.176C810.626 39.776 810.146 41.2 809.186 42.448C808.226 43.664 806.834 44.624 805.01 45.328C803.218 46.032 801.026 46.384 798.434 46.384Z" fill="white"/>
<path d="M883.551 25.936H899.727V31.984H883.551V25.936ZM884.127 39.76H902.415V46H876.399V12.4H901.791V18.64H884.127V39.76ZM919.022 46.384C916.59 46.384 914.398 45.84 912.446 44.752C910.494 43.632 908.942 42.08 907.79 40.096C906.67 38.112 906.11 35.776 906.11 33.088C906.11 30.368 906.67 28.016 907.79 26.032C908.942 24.048 910.494 22.512 912.446 21.424C914.398 20.336 916.59 19.792 919.022 19.792C921.198 19.792 923.102 20.272 924.734 21.232C926.366 22.192 927.63 23.648 928.526 25.6C929.422 27.552 929.87 30.048 929.87 33.088C929.87 36.096 929.438 38.592 928.574 40.576C927.71 42.528 926.462 43.984 924.83 44.944C923.23 45.904 921.294 46.384 919.022 46.384ZM920.318 40.24C921.534 40.24 922.638 39.952 923.63 39.376C924.622 38.8 925.406 37.984 925.982 36.928C926.59 35.84 926.894 34.56 926.894 33.088C926.894 31.584 926.59 30.304 925.982 29.248C925.406 28.192 924.622 27.376 923.63 26.8C922.638 26.224 921.534 25.936 920.318 25.936C919.07 25.936 917.95 26.224 916.958 26.8C915.966 27.376 915.166 28.192 914.558 29.248C913.982 30.304 913.694 31.584 913.694 33.088C913.694 34.56 913.982 35.84 914.558 36.928C915.166 37.984 915.966 38.8 916.958 39.376C917.95 39.952 919.07 40.24 920.318 40.24ZM927.086 46V40.72L927.23 33.04L926.75 25.408V10.384H934.238V46H927.086ZM952.064 46.384C949.92 46.384 948 45.968 946.304 45.136C944.64 44.304 943.344 43.04 942.416 41.344C941.488 39.616 941.024 37.424 941.024 34.768V20.176H948.512V33.664C948.512 35.808 948.96 37.392 949.856 38.416C950.784 39.408 952.08 39.904 953.744 39.904C954.896 39.904 955.92 39.664 956.816 39.184C957.712 38.672 958.416 37.904 958.928 36.88C959.44 35.824 959.696 34.512 959.696 32.944V20.176H967.184V46H960.08V38.896L961.376 40.96C960.512 42.752 959.232 44.112 957.536 45.04C955.872 45.936 954.048 46.384 952.064 46.384ZM986.601 46.384C983.817 46.384 981.337 45.824 979.161 44.704C976.985 43.552 975.273 41.968 974.025 39.952C972.809 37.936 972.201 35.648 972.201 33.088C972.201 30.496 972.809 28.208 974.025 26.224C975.273 24.208 976.985 22.64 979.161 21.52C981.337 20.368 983.817 19.792 986.601 19.792C989.321 19.792 991.689 20.368 993.705 21.52C995.721 22.64 997.209 24.256 998.169 26.368L992.361 29.488C991.689 28.272 990.841 27.376 989.817 26.8C988.825 26.224 987.737 25.936 986.553 25.936C985.273 25.936 984.121 26.224 983.097 26.8C982.073 27.376 981.257 28.192 980.649 29.248C980.073 30.304 979.785 31.584 979.785 33.088C979.785 34.592 980.073 35.872 980.649 36.928C981.257 37.984 982.073 38.8 983.097 39.376C984.121 39.952 985.273 40.24 986.553 40.24C987.737 40.24 988.825 39.968 989.817 39.424C990.841 38.848 991.689 37.936 992.361 36.688L998.169 39.856C997.209 41.936 995.721 43.552 993.705 44.704C991.689 45.824 989.321 46.384 986.601 46.384ZM1018.32 46V40.96L1017.84 39.856V30.832C1017.84 29.232 1017.34 27.984 1016.35 27.088C1015.39 26.192 1013.9 25.744 1011.89 25.744C1010.51 25.744 1009.15 25.968 1007.81 26.416C1006.5 26.832 1005.38 27.408 1004.45 28.144L1001.76 22.912C1003.17 21.92 1004.86 21.152 1006.85 20.608C1008.83 20.064 1010.85 19.792 1012.9 19.792C1016.83 19.792 1019.89 20.72 1022.06 22.576C1024.24 24.432 1025.33 27.328 1025.33 31.264V46H1018.32ZM1010.45 46.384C1008.43 46.384 1006.7 46.048 1005.26 45.376C1003.82 44.672 1002.72 43.728 1001.95 42.544C1001.18 41.36 1000.8 40.032 1000.8 38.56C1000.8 37.024 1001.17 35.68 1001.9 34.528C1002.67 33.376 1003.87 32.48 1005.5 31.84C1007.14 31.168 1009.26 30.832 1011.89 30.832H1018.75V35.2H1012.7C1010.94 35.2 1009.73 35.488 1009.06 36.064C1008.42 36.64 1008.1 37.36 1008.1 38.224C1008.1 39.184 1008.46 39.952 1009.2 40.528C1009.97 41.072 1011.01 41.344 1012.32 41.344C1013.57 41.344 1014.69 41.056 1015.68 40.48C1016.67 39.872 1017.39 38.992 1017.84 37.84L1018.99 41.296C1018.45 42.96 1017.46 44.224 1016.02 45.088C1014.58 45.952 1012.72 46.384 1010.45 46.384ZM1042.67 46.384C1039.63 46.384 1037.26 45.616 1035.56 44.08C1033.87 42.512 1033.02 40.192 1033.02 37.12V14.464H1040.51V37.024C1040.51 38.112 1040.79 38.96 1041.37 39.568C1041.95 40.144 1042.73 40.432 1043.72 40.432C1044.91 40.432 1045.91 40.112 1046.75 39.472L1048.76 44.752C1047.99 45.296 1047.07 45.712 1045.98 46C1044.92 46.256 1043.82 46.384 1042.67 46.384ZM1029.03 26.512V20.752H1046.94V26.512H1029.03ZM1052.97 46V20.176H1060.45V46H1052.97ZM1056.71 16.576C1055.33 16.576 1054.21 16.176 1053.35 15.376C1052.49 14.576 1052.05 13.584 1052.05 12.4C1052.05 11.216 1052.49 10.224 1053.35 9.424C1054.21 8.624 1055.33 8.224 1056.71 8.224C1058.09 8.224 1059.21 8.608 1060.07 9.376C1060.93 10.112 1061.37 11.072 1061.37 12.256C1061.37 13.504 1060.93 14.544 1060.07 15.376C1059.24 16.176 1058.12 16.576 1056.71 16.576ZM1079.69 46.384C1076.94 46.384 1074.49 45.808 1072.35 44.656C1070.23 43.504 1068.55 41.936 1067.31 39.952C1066.09 37.936 1065.48 35.648 1065.48 33.088C1065.48 30.496 1066.09 28.208 1067.31 26.224C1068.55 24.208 1070.23 22.64 1072.35 21.52C1074.49 20.368 1076.94 19.792 1079.69 19.792C1082.41 19.792 1084.84 20.368 1086.99 21.52C1089.13 22.64 1090.81 24.192 1092.03 26.176C1093.24 28.16 1093.85 30.464 1093.85 33.088C1093.85 35.648 1093.24 37.936 1092.03 39.952C1090.81 41.936 1089.13 43.504 1086.99 44.656C1084.84 45.808 1082.41 46.384 1079.69 46.384ZM1079.69 40.24C1080.94 40.24 1082.06 39.952 1083.05 39.376C1084.04 38.8 1084.83 37.984 1085.4 36.928C1085.98 35.84 1086.27 34.56 1086.27 33.088C1086.27 31.584 1085.98 30.304 1085.4 29.248C1084.83 28.192 1084.04 27.376 1083.05 26.8C1082.06 26.224 1080.94 25.936 1079.69 25.936C1078.44 25.936 1077.32 26.224 1076.33 26.8C1075.34 27.376 1074.54 28.192 1073.93 29.248C1073.35 30.304 1073.07 31.584 1073.07 33.088C1073.07 34.56 1073.35 35.84 1073.93 36.928C1074.54 37.984 1075.34 38.8 1076.33 39.376C1077.32 39.952 1078.44 40.24 1079.69 40.24ZM1114.55 19.792C1116.6 19.792 1118.42 20.208 1120.02 21.04C1121.66 21.84 1122.94 23.088 1123.86 24.784C1124.79 26.448 1125.26 28.592 1125.26 31.216V46H1117.77V32.368C1117.77 30.288 1117.3 28.752 1116.38 27.76C1115.48 26.768 1114.2 26.272 1112.54 26.272C1111.35 26.272 1110.28 26.528 1109.32 27.04C1108.39 27.52 1107.66 28.272 1107.11 29.296C1106.6 30.32 1106.34 31.632 1106.34 33.232V46H1098.86V20.176H1106.01V27.328L1104.66 25.168C1105.59 23.44 1106.92 22.112 1108.65 21.184C1110.38 20.256 1112.34 19.792 1114.55 19.792Z" fill="white"/>
<path d="M1216.46 12.4H1224.24V46H1216.46V12.4ZM1201.2 46H1193.42V12.4H1201.2V46ZM1217.04 32.224H1200.62V25.648H1217.04V32.224ZM1244.48 46.384C1241.53 46.384 1238.94 45.808 1236.7 44.656C1234.49 43.504 1232.78 41.936 1231.56 39.952C1230.35 37.936 1229.74 35.648 1229.74 33.088C1229.74 30.496 1230.33 28.208 1231.52 26.224C1232.73 24.208 1234.38 22.64 1236.46 21.52C1238.54 20.368 1240.89 19.792 1243.52 19.792C1246.04 19.792 1248.32 20.336 1250.33 21.424C1252.38 22.48 1254 24.016 1255.18 26.032C1256.36 28.016 1256.96 30.4 1256.96 33.184C1256.96 33.472 1256.94 33.808 1256.91 34.192C1256.88 34.544 1256.84 34.88 1256.81 35.2H1235.84V30.832H1252.88L1250 32.128C1250 30.784 1249.72 29.616 1249.18 28.624C1248.64 27.632 1247.88 26.864 1246.92 26.32C1245.96 25.744 1244.84 25.456 1243.56 25.456C1242.28 25.456 1241.15 25.744 1240.16 26.32C1239.2 26.864 1238.44 27.648 1237.9 28.672C1237.36 29.664 1237.08 30.848 1237.08 32.224V33.376C1237.08 34.784 1237.39 36.032 1238 37.12C1238.64 38.176 1239.52 38.992 1240.64 39.568C1241.79 40.112 1243.13 40.384 1244.67 40.384C1246.04 40.384 1247.24 40.176 1248.27 39.76C1249.32 39.344 1250.28 38.72 1251.15 37.888L1255.13 42.208C1253.95 43.552 1252.46 44.592 1250.67 45.328C1248.88 46.032 1246.81 46.384 1244.48 46.384ZM1277.08 46V40.96L1276.6 39.856V30.832C1276.6 29.232 1276.1 27.984 1275.11 27.088C1274.15 26.192 1272.66 25.744 1270.65 25.744C1269.27 25.744 1267.91 25.968 1266.57 26.416C1265.25 26.832 1264.13 27.408 1263.21 28.144L1260.52 22.912C1261.93 21.92 1263.62 21.152 1265.61 20.608C1267.59 20.064 1269.61 19.792 1271.65 19.792C1275.59 19.792 1278.65 20.72 1280.82 22.576C1283 24.432 1284.09 27.328 1284.09 31.264V46H1277.08ZM1269.21 46.384C1267.19 46.384 1265.46 46.048 1264.02 45.376C1262.58 44.672 1261.48 43.728 1260.71 42.544C1259.94 41.36 1259.56 40.032 1259.56 38.56C1259.56 37.024 1259.93 35.68 1260.66 34.528C1261.43 33.376 1262.63 32.48 1264.26 31.84C1265.89 31.168 1268.02 30.832 1270.65 30.832H1277.51V35.2H1271.46C1269.7 35.2 1268.49 35.488 1267.81 36.064C1267.17 36.64 1266.85 37.36 1266.85 38.224C1266.85 39.184 1267.22 39.952 1267.96 40.528C1268.73 41.072 1269.77 41.344 1271.08 41.344C1272.33 41.344 1273.45 41.056 1274.44 40.48C1275.43 39.872 1276.15 38.992 1276.6 37.84L1277.75 41.296C1277.21 42.96 1276.21 44.224 1274.77 45.088C1273.33 45.952 1271.48 46.384 1269.21 46.384ZM1290.86 46V10.384H1298.35V46H1290.86ZM1317.78 46.384C1314.74 46.384 1312.37 45.616 1310.68 44.08C1308.98 42.512 1308.13 40.192 1308.13 37.12V14.464H1315.62V37.024C1315.62 38.112 1315.91 38.96 1316.49 39.568C1317.06 40.144 1317.85 40.432 1318.84 40.432C1320.02 40.432 1321.03 40.112 1321.86 39.472L1323.88 44.752C1323.11 45.296 1322.18 45.712 1321.09 46C1320.04 46.256 1318.93 46.384 1317.78 46.384ZM1304.15 26.512V20.752H1322.05V26.512H1304.15ZM1343.78 19.792C1345.83 19.792 1347.65 20.208 1349.25 21.04C1350.88 21.84 1352.16 23.088 1353.09 24.784C1354.02 26.448 1354.48 28.592 1354.48 31.216V46H1346.99V32.368C1346.99 30.288 1346.53 28.752 1345.6 27.76C1344.71 26.768 1343.43 26.272 1341.76 26.272C1340.58 26.272 1339.51 26.528 1338.55 27.04C1337.62 27.52 1336.88 28.272 1336.34 29.296C1335.83 30.32 1335.57 31.632 1335.57 33.232V46H1328.08V10.384H1335.57V27.328L1333.89 25.168C1334.82 23.44 1336.15 22.112 1337.87 21.184C1339.6 20.256 1341.57 19.792 1343.78 19.792ZM1373.94 46.384C1371.15 46.384 1368.67 45.824 1366.5 44.704C1364.32 43.552 1362.61 41.968 1361.36 39.952C1360.15 37.936 1359.54 35.648 1359.54 33.088C1359.54 30.496 1360.15 28.208 1361.36 26.224C1362.61 24.208 1364.32 22.64 1366.5 21.52C1368.67 20.368 1371.15 19.792 1373.94 19.792C1376.66 19.792 1379.03 20.368 1381.04 21.52C1383.06 22.64 1384.55 24.256 1385.51 26.368L1379.7 29.488C1379.03 28.272 1378.18 27.376 1377.15 26.8C1376.16 26.224 1375.07 25.936 1373.89 25.936C1372.61 25.936 1371.46 26.224 1370.43 26.8C1369.41 27.376 1368.59 28.192 1367.99 29.248C1367.41 30.304 1367.12 31.584 1367.12 33.088C1367.12 34.592 1367.41 35.872 1367.99 36.928C1368.59 37.984 1369.41 38.8 1370.43 39.376C1371.46 39.952 1372.61 40.24 1373.89 40.24C1375.07 40.24 1376.16 39.968 1377.15 39.424C1378.18 38.848 1379.03 37.936 1379.7 36.688L1385.51 39.856C1384.55 41.936 1383.06 43.552 1381.04 44.704C1379.03 45.824 1376.66 46.384 1373.94 46.384ZM1405.66 46V40.96L1405.18 39.856V30.832C1405.18 29.232 1404.68 27.984 1403.69 27.088C1402.73 26.192 1401.24 25.744 1399.22 25.744C1397.85 25.744 1396.49 25.968 1395.14 26.416C1393.83 26.832 1392.71 27.408 1391.78 28.144L1389.1 22.912C1390.5 21.92 1392.2 21.152 1394.18 20.608C1396.17 20.064 1398.18 19.792 1400.23 19.792C1404.17 19.792 1407.22 20.72 1409.4 22.576C1411.58 24.432 1412.66 27.328 1412.66 31.264V46H1405.66ZM1397.78 46.384C1395.77 46.384 1394.04 46.048 1392.6 45.376C1391.16 44.672 1390.06 43.728 1389.29 42.544C1388.52 41.36 1388.14 40.032 1388.14 38.56C1388.14 37.024 1388.5 35.68 1389.24 34.528C1390.01 33.376 1391.21 32.48 1392.84 31.84C1394.47 31.168 1396.6 30.832 1399.22 30.832H1406.09V35.2H1400.04C1398.28 35.2 1397.06 35.488 1396.39 36.064C1395.75 36.64 1395.43 37.36 1395.43 38.224C1395.43 39.184 1395.8 39.952 1396.54 40.528C1397.3 41.072 1398.34 41.344 1399.66 41.344C1400.9 41.344 1402.02 41.056 1403.02 40.48C1404.01 39.872 1404.73 38.992 1405.18 37.84L1406.33 41.296C1405.78 42.96 1404.79 44.224 1403.35 45.088C1401.91 45.952 1400.06 46.384 1397.78 46.384ZM1419.44 46V20.176H1426.59V27.472L1425.59 25.36C1426.35 23.536 1427.59 22.16 1429.28 21.232C1430.98 20.272 1433.04 19.792 1435.47 19.792V26.704C1435.15 26.672 1434.87 26.656 1434.61 26.656C1434.35 26.624 1434.08 26.608 1433.79 26.608C1431.75 26.608 1430.08 27.2 1428.8 28.384C1427.55 29.536 1426.93 31.344 1426.93 33.808V46H1419.44ZM1452.55 46.384C1449.61 46.384 1447.02 45.808 1444.78 44.656C1442.57 43.504 1440.86 41.936 1439.64 39.952C1438.43 37.936 1437.82 35.648 1437.82 33.088C1437.82 30.496 1438.41 28.208 1439.59 26.224C1440.81 24.208 1442.46 22.64 1444.54 21.52C1446.62 20.368 1448.97 19.792 1451.59 19.792C1454.12 19.792 1456.39 20.336 1458.41 21.424C1460.46 22.48 1462.07 24.016 1463.26 26.032C1464.44 28.016 1465.03 30.4 1465.03 33.184C1465.03 33.472 1465.02 33.808 1464.99 34.192C1464.95 34.544 1464.92 34.88 1464.89 35.2H1443.91V30.832H1460.95L1458.07 32.128C1458.07 30.784 1457.8 29.616 1457.26 28.624C1456.71 27.632 1455.96 26.864 1455 26.32C1454.04 25.744 1452.92 25.456 1451.64 25.456C1450.36 25.456 1449.23 25.744 1448.23 26.32C1447.27 26.864 1446.52 27.648 1445.98 28.672C1445.43 29.664 1445.16 30.848 1445.16 32.224V33.376C1445.16 34.784 1445.47 36.032 1446.07 37.12C1446.71 38.176 1447.59 38.992 1448.71 39.568C1449.87 40.112 1451.21 40.384 1452.75 40.384C1454.12 40.384 1455.32 40.176 1456.35 39.76C1457.4 39.344 1458.36 38.72 1459.23 37.888L1463.21 42.208C1462.03 43.552 1460.54 44.592 1458.75 45.328C1456.95 46.032 1454.89 46.384 1452.55 46.384Z" fill="white"/>
<path d="M1538.34 46V18.736H1527.58V12.4H1556.86V18.736H1546.11V46H1538.34ZM1570.71 46.384C1567.77 46.384 1565.17 45.808 1562.93 44.656C1560.73 43.504 1559.01 41.936 1557.8 39.952C1556.58 37.936 1555.97 35.648 1555.97 33.088C1555.97 30.496 1556.57 28.208 1557.75 26.224C1558.97 24.208 1560.61 22.64 1562.69 21.52C1564.77 20.368 1567.13 19.792 1569.75 19.792C1572.28 19.792 1574.55 20.336 1576.57 21.424C1578.61 22.48 1580.23 24.016 1581.41 26.032C1582.6 28.016 1583.19 30.4 1583.19 33.184C1583.19 33.472 1583.17 33.808 1583.14 34.192C1583.11 34.544 1583.08 34.88 1583.05 35.2H1562.07V30.832H1579.11L1576.23 32.128C1576.23 30.784 1575.96 29.616 1575.41 28.624C1574.87 27.632 1574.12 26.864 1573.16 26.32C1572.2 25.744 1571.08 25.456 1569.8 25.456C1568.52 25.456 1567.38 25.744 1566.39 26.32C1565.43 26.864 1564.68 27.648 1564.13 28.672C1563.59 29.664 1563.32 30.848 1563.32 32.224V33.376C1563.32 34.784 1563.62 36.032 1564.23 37.12C1564.87 38.176 1565.75 38.992 1566.87 39.568C1568.02 40.112 1569.37 40.384 1570.9 40.384C1572.28 40.384 1573.48 40.176 1574.5 39.76C1575.56 39.344 1576.52 38.72 1577.38 37.888L1581.37 42.208C1580.18 43.552 1578.69 44.592 1576.9 45.328C1575.11 46.032 1573.05 46.384 1570.71 46.384ZM1588.18 46V10.384H1595.66V46H1588.18ZM1615.43 46.384C1612.49 46.384 1609.89 45.808 1607.65 44.656C1605.45 43.504 1603.73 41.936 1602.52 39.952C1601.3 37.936 1600.69 35.648 1600.69 33.088C1600.69 30.496 1601.29 28.208 1602.47 26.224C1603.69 24.208 1605.33 22.64 1607.41 21.52C1609.49 20.368 1611.85 19.792 1614.47 19.792C1617 19.792 1619.27 20.336 1621.29 21.424C1623.33 22.48 1624.95 24.016 1626.13 26.032C1627.32 28.016 1627.91 30.4 1627.91 33.184C1627.91 33.472 1627.89 33.808 1627.86 34.192C1627.83 34.544 1627.8 34.88 1627.77 35.2H1606.79V30.832H1623.83L1620.95 32.128C1620.95 30.784 1620.68 29.616 1620.13 28.624C1619.59 27.632 1618.84 26.864 1617.88 26.32C1616.92 25.744 1615.8 25.456 1614.52 25.456C1613.24 25.456 1612.1 25.744 1611.11 26.32C1610.15 26.864 1609.4 27.648 1608.85 28.672C1608.31 29.664 1608.04 30.848 1608.04 32.224V33.376C1608.04 34.784 1608.34 36.032 1608.95 37.12C1609.59 38.176 1610.47 38.992 1611.59 39.568C1612.74 40.112 1614.09 40.384 1615.62 40.384C1617 40.384 1618.2 40.176 1619.22 39.76C1620.28 39.344 1621.24 38.72 1622.1 37.888L1626.09 42.208C1624.9 43.552 1623.41 44.592 1621.62 45.328C1619.83 46.032 1617.77 46.384 1615.43 46.384ZM1645.37 46.384C1642.59 46.384 1640.11 45.824 1637.93 44.704C1635.76 43.552 1634.05 41.968 1632.8 39.952C1631.58 37.936 1630.97 35.648 1630.97 33.088C1630.97 30.496 1631.58 28.208 1632.8 26.224C1634.05 24.208 1635.76 22.64 1637.93 21.52C1640.11 20.368 1642.59 19.792 1645.37 19.792C1648.09 19.792 1650.46 20.368 1652.48 21.52C1654.49 22.64 1655.98 24.256 1656.94 26.368L1651.13 29.488C1650.46 28.272 1649.61 27.376 1648.59 26.8C1647.6 26.224 1646.51 25.936 1645.33 25.936C1644.05 25.936 1642.89 26.224 1641.87 26.8C1640.85 27.376 1640.03 28.192 1639.42 29.248C1638.85 30.304 1638.56 31.584 1638.56 33.088C1638.56 34.592 1638.85 35.872 1639.42 36.928C1640.03 37.984 1640.85 38.8 1641.87 39.376C1642.89 39.952 1644.05 40.24 1645.33 40.24C1646.51 40.24 1647.6 39.968 1648.59 39.424C1649.61 38.848 1650.46 37.936 1651.13 36.688L1656.94 39.856C1655.98 41.936 1654.49 43.552 1652.48 44.704C1650.46 45.824 1648.09 46.384 1645.37 46.384ZM1673.21 46.384C1670.46 46.384 1668.01 45.808 1665.87 44.656C1663.76 43.504 1662.08 41.936 1660.83 39.952C1659.61 37.936 1659.01 35.648 1659.01 33.088C1659.01 30.496 1659.61 28.208 1660.83 26.224C1662.08 24.208 1663.76 22.64 1665.87 21.52C1668.01 20.368 1670.46 19.792 1673.21 19.792C1675.93 19.792 1678.37 20.368 1680.51 21.52C1682.65 22.64 1684.33 24.192 1685.55 26.176C1686.77 28.16 1687.37 30.464 1687.37 33.088C1687.37 35.648 1686.77 37.936 1685.55 39.952C1684.33 41.936 1682.65 43.504 1680.51 44.656C1678.37 45.808 1675.93 46.384 1673.21 46.384ZM1673.21 40.24C1674.46 40.24 1675.58 39.952 1676.57 39.376C1677.57 38.8 1678.35 37.984 1678.93 36.928C1679.5 35.84 1679.79 34.56 1679.79 33.088C1679.79 31.584 1679.5 30.304 1678.93 29.248C1678.35 28.192 1677.57 27.376 1676.57 26.8C1675.58 26.224 1674.46 25.936 1673.21 25.936C1671.97 25.936 1670.85 26.224 1669.85 26.8C1668.86 27.376 1668.06 28.192 1667.45 29.248C1666.88 30.304 1666.59 31.584 1666.59 33.088C1666.59 34.56 1666.88 35.84 1667.45 36.928C1668.06 37.984 1668.86 38.8 1669.85 39.376C1670.85 39.952 1671.97 40.24 1673.21 40.24ZM1725.45 19.792C1727.5 19.792 1729.31 20.208 1730.88 21.04C1732.48 21.84 1733.72 23.088 1734.62 24.784C1735.55 26.448 1736.01 28.592 1736.01 31.216V46H1728.52V32.368C1728.52 30.288 1728.09 28.752 1727.23 27.76C1726.36 26.768 1725.15 26.272 1723.58 26.272C1722.49 26.272 1721.52 26.528 1720.65 27.04C1719.79 27.52 1719.12 28.256 1718.64 29.248C1718.16 30.24 1717.92 31.504 1717.92 33.04V46H1710.43V32.368C1710.43 30.288 1710 28.752 1709.13 27.76C1708.3 26.768 1707.1 26.272 1705.53 26.272C1704.44 26.272 1703.47 26.528 1702.6 27.04C1701.74 27.52 1701.07 28.256 1700.59 29.248C1700.11 30.24 1699.87 31.504 1699.87 33.04V46H1692.38V20.176H1699.53V27.232L1698.19 25.168C1699.08 23.408 1700.35 22.08 1701.98 21.184C1703.64 20.256 1705.53 19.792 1707.64 19.792C1710.01 19.792 1712.08 20.4 1713.84 21.616C1715.63 22.8 1716.81 24.624 1717.39 27.088L1714.75 26.368C1715.61 24.352 1716.99 22.752 1718.88 21.568C1720.8 20.384 1722.99 19.792 1725.45 19.792ZM1775.79 19.792C1777.84 19.792 1779.65 20.208 1781.22 21.04C1782.82 21.84 1784.07 23.088 1784.96 24.784C1785.89 26.448 1786.35 28.592 1786.35 31.216V46H1778.87V32.368C1778.87 30.288 1778.43 28.752 1777.57 27.76C1776.71 26.768 1775.49 26.272 1773.92 26.272C1772.83 26.272 1771.86 26.528 1770.99 27.04C1770.13 27.52 1769.46 28.256 1768.98 29.248C1768.5 30.24 1768.26 31.504 1768.26 33.04V46H1760.77V32.368C1760.77 30.288 1760.34 28.752 1759.47 27.76C1758.64 26.768 1757.44 26.272 1755.87 26.272C1754.79 26.272 1753.81 26.528 1752.95 27.04C1752.08 27.52 1751.41 28.256 1750.93 29.248C1750.45 30.24 1750.21 31.504 1750.21 33.04V46H1742.72V20.176H1749.87V27.232L1748.53 25.168C1749.43 23.408 1750.69 22.08 1752.32 21.184C1753.99 20.256 1755.87 19.792 1757.99 19.792C1760.35 19.792 1762.42 20.4 1764.18 21.616C1765.97 22.8 1767.15 24.624 1767.73 27.088L1765.09 26.368C1765.95 24.352 1767.33 22.752 1769.22 21.568C1771.14 20.384 1773.33 19.792 1775.79 19.792ZM1803.96 46.384C1801.82 46.384 1799.9 45.968 1798.2 45.136C1796.54 44.304 1795.24 43.04 1794.31 41.344C1793.39 39.616 1792.92 37.424 1792.92 34.768V20.176H1800.41V33.664C1800.41 35.808 1800.86 37.392 1801.75 38.416C1802.68 39.408 1803.98 39.904 1805.64 39.904C1806.79 39.904 1807.82 39.664 1808.71 39.184C1809.61 38.672 1810.31 37.904 1810.83 36.88C1811.34 35.824 1811.59 34.512 1811.59 32.944V20.176H1819.08V46H1811.98V38.896L1813.27 40.96C1812.41 42.752 1811.13 44.112 1809.43 45.04C1807.77 45.936 1805.95 46.384 1803.96 46.384ZM1841.72 19.792C1843.76 19.792 1845.59 20.208 1847.19 21.04C1848.82 21.84 1850.1 23.088 1851.03 24.784C1851.96 26.448 1852.42 28.592 1852.42 31.216V46H1844.93V32.368C1844.93 30.288 1844.47 28.752 1843.54 27.76C1842.64 26.768 1841.36 26.272 1839.7 26.272C1838.52 26.272 1837.44 26.528 1836.48 27.04C1835.56 27.52 1834.82 28.272 1834.28 29.296C1833.76 30.32 1833.51 31.632 1833.51 33.232V46H1826.02V20.176H1833.17V27.328L1831.83 25.168C1832.76 23.44 1834.08 22.112 1835.81 21.184C1837.54 20.256 1839.51 19.792 1841.72 19.792ZM1859.21 46V20.176H1866.7V46H1859.21ZM1862.95 16.576C1861.58 16.576 1860.46 16.176 1859.59 15.376C1858.73 14.576 1858.3 13.584 1858.3 12.4C1858.3 11.216 1858.73 10.224 1859.59 9.424C1860.46 8.624 1861.58 8.224 1862.95 8.224C1864.33 8.224 1865.45 8.608 1866.31 9.376C1867.18 10.112 1867.61 11.072 1867.61 12.256C1867.61 13.504 1867.18 14.544 1866.31 15.376C1865.48 16.176 1864.36 16.576 1862.95 16.576ZM1886.12 46.384C1883.34 46.384 1880.86 45.824 1878.68 44.704C1876.51 43.552 1874.8 41.968 1873.55 39.952C1872.33 37.936 1871.72 35.648 1871.72 33.088C1871.72 30.496 1872.33 28.208 1873.55 26.224C1874.8 24.208 1876.51 22.64 1878.68 21.52C1880.86 20.368 1883.34 19.792 1886.12 19.792C1888.84 19.792 1891.21 20.368 1893.23 21.52C1895.24 22.64 1896.73 24.256 1897.69 26.368L1891.88 29.488C1891.21 28.272 1890.36 27.376 1889.34 26.8C1888.35 26.224 1887.26 25.936 1886.08 25.936C1884.8 25.936 1883.64 26.224 1882.62 26.8C1881.6 27.376 1880.78 28.192 1880.17 29.248C1879.6 30.304 1879.31 31.584 1879.31 33.088C1879.31 34.592 1879.6 35.872 1880.17 36.928C1880.78 37.984 1881.6 38.8 1882.62 39.376C1883.64 39.952 1884.8 40.24 1886.08 40.24C1887.26 40.24 1888.35 39.968 1889.34 39.424C1890.36 38.848 1891.21 37.936 1891.88 36.688L1897.69 39.856C1896.73 41.936 1895.24 43.552 1893.23 44.704C1891.21 45.824 1888.84 46.384 1886.12 46.384ZM1917.84 46V40.96L1917.36 39.856V30.832C1917.36 29.232 1916.87 27.984 1915.88 27.088C1914.92 26.192 1913.43 25.744 1911.41 25.744C1910.04 25.744 1908.68 25.968 1907.33 26.416C1906.02 26.832 1904.9 27.408 1903.97 28.144L1901.28 22.912C1902.69 21.92 1904.39 21.152 1906.37 20.608C1908.36 20.064 1910.37 19.792 1912.42 19.792C1916.36 19.792 1919.41 20.72 1921.59 22.576C1923.76 24.432 1924.85 27.328 1924.85 31.264V46H1917.84ZM1909.97 46.384C1907.96 46.384 1906.23 46.048 1904.79 45.376C1903.35 44.672 1902.24 43.728 1901.48 42.544C1900.71 41.36 1900.32 40.032 1900.32 38.56C1900.32 37.024 1900.69 35.68 1901.43 34.528C1902.2 33.376 1903.4 32.48 1905.03 31.84C1906.66 31.168 1908.79 30.832 1911.41 30.832H1918.28V35.2H1912.23C1910.47 35.2 1909.25 35.488 1908.58 36.064C1907.94 36.64 1907.62 37.36 1907.62 38.224C1907.62 39.184 1907.99 39.952 1908.72 40.528C1909.49 41.072 1910.53 41.344 1911.84 41.344C1913.09 41.344 1914.21 41.056 1915.2 40.48C1916.2 39.872 1916.92 38.992 1917.36 37.84L1918.52 41.296C1917.97 42.96 1916.98 44.224 1915.54 45.088C1914.1 45.952 1912.24 46.384 1909.97 46.384ZM1942.19 46.384C1939.15 46.384 1936.78 45.616 1935.09 44.08C1933.39 42.512 1932.54 40.192 1932.54 37.12V14.464H1940.03V37.024C1940.03 38.112 1940.32 38.96 1940.89 39.568C1941.47 40.144 1942.25 40.432 1943.25 40.432C1944.43 40.432 1945.44 40.112 1946.27 39.472L1948.29 44.752C1947.52 45.296 1946.59 45.712 1945.5 46C1944.45 46.256 1943.34 46.384 1942.19 46.384ZM1928.56 26.512V20.752H1946.46V26.512H1928.56ZM1952.49 46V20.176H1959.98V46H1952.49ZM1956.23 16.576C1954.86 16.576 1953.74 16.176 1952.87 15.376C1952.01 14.576 1951.58 13.584 1951.58 12.4C1951.58 11.216 1952.01 10.224 1952.87 9.424C1953.74 8.624 1954.86 8.224 1956.23 8.224C1957.61 8.224 1958.73 8.608 1959.59 9.376C1960.46 10.112 1960.89 11.072 1960.89 12.256C1960.89 13.504 1960.46 14.544 1959.59 15.376C1958.76 16.176 1957.64 16.576 1956.23 16.576ZM1979.21 46.384C1976.46 46.384 1974.01 45.808 1971.87 44.656C1969.76 43.504 1968.08 41.936 1966.83 39.952C1965.61 37.936 1965.01 35.648 1965.01 33.088C1965.01 30.496 1965.61 28.208 1966.83 26.224C1968.08 24.208 1969.76 22.64 1971.87 21.52C1974.01 20.368 1976.46 19.792 1979.21 19.792C1981.93 19.792 1984.37 20.368 1986.51 21.52C1988.65 22.64 1990.33 24.192 1991.55 26.176C1992.77 28.16 1993.37 30.464 1993.37 33.088C1993.37 35.648 1992.77 37.936 1991.55 39.952C1990.33 41.936 1988.65 43.504 1986.51 44.656C1984.37 45.808 1981.93 46.384 1979.21 46.384ZM1979.21 40.24C1980.46 40.24 1981.58 39.952 1982.57 39.376C1983.57 38.8 1984.35 37.984 1984.93 36.928C1985.5 35.84 1985.79 34.56 1985.79 33.088C1985.79 31.584 1985.5 30.304 1984.93 29.248C1984.35 28.192 1983.57 27.376 1982.57 26.8C1981.58 26.224 1980.46 25.936 1979.21 25.936C1977.97 25.936 1976.85 26.224 1975.85 26.8C1974.86 27.376 1974.06 28.192 1973.45 29.248C1972.88 30.304 1972.59 31.584 1972.59 33.088C1972.59 34.56 1972.88 35.84 1973.45 36.928C1974.06 37.984 1974.86 38.8 1975.85 39.376C1976.85 39.952 1977.97 40.24 1979.21 40.24ZM2014.08 19.792C2016.12 19.792 2017.95 20.208 2019.55 21.04C2021.18 21.84 2022.46 23.088 2023.39 24.784C2024.32 26.448 2024.78 28.592 2024.78 31.216V46H2017.29V32.368C2017.29 30.288 2016.83 28.752 2015.9 27.76C2015 26.768 2013.72 26.272 2012.06 26.272C2010.88 26.272 2009.8 26.528 2008.84 27.04C2007.92 27.52 2007.18 28.272 2006.64 29.296C2006.12 30.32 2005.87 31.632 2005.87 33.232V46H1998.38V20.176H2005.53V27.328L2004.19 25.168C2005.12 23.44 2006.44 22.112 2008.17 21.184C2009.9 20.256 2011.87 19.792 2014.08 19.792ZM2040.25 46.384C2038.05 46.384 2035.92 46.128 2033.87 45.616C2031.85 45.072 2030.25 44.4 2029.07 43.6L2031.57 38.224C2032.75 38.96 2034.14 39.568 2035.74 40.048C2037.37 40.496 2038.97 40.72 2040.54 40.72C2042.27 40.72 2043.49 40.512 2044.19 40.096C2044.93 39.68 2045.29 39.104 2045.29 38.368C2045.29 37.76 2045.01 37.312 2044.43 37.024C2043.89 36.704 2043.15 36.464 2042.22 36.304C2041.29 36.144 2040.27 35.984 2039.15 35.824C2038.06 35.664 2036.96 35.456 2035.84 35.2C2034.72 34.912 2033.69 34.496 2032.77 33.952C2031.84 33.408 2031.09 32.672 2030.51 31.744C2029.97 30.816 2029.69 29.616 2029.69 28.144C2029.69 26.512 2030.16 25.072 2031.09 23.824C2032.05 22.576 2033.42 21.6 2035.21 20.896C2037.01 20.16 2039.15 19.792 2041.65 19.792C2043.41 19.792 2045.2 19.984 2047.02 20.368C2048.85 20.752 2050.37 21.312 2051.58 22.048L2049.09 27.376C2047.84 26.64 2046.57 26.144 2045.29 25.888C2044.05 25.6 2042.83 25.456 2041.65 25.456C2039.98 25.456 2038.77 25.68 2038 26.128C2037.23 26.576 2036.85 27.152 2036.85 27.856C2036.85 28.496 2037.12 28.976 2037.66 29.296C2038.24 29.616 2038.99 29.872 2039.92 30.064C2040.85 30.256 2041.85 30.432 2042.94 30.592C2044.06 30.72 2045.18 30.928 2046.3 31.216C2047.42 31.504 2048.43 31.92 2049.33 32.464C2050.25 32.976 2051.01 33.696 2051.58 34.624C2052.16 35.52 2052.45 36.704 2052.45 38.176C2052.45 39.776 2051.97 41.2 2051.01 42.448C2050.05 43.664 2048.65 44.624 2046.83 45.328C2045.04 46.032 2042.85 46.384 2040.25 46.384Z" fill="white"/>
</g>
<defs>
<linearGradient id="paint0_linear_1_95" x1="126" y1="32.6073" x2="1793.5" y2="32.6076" gradientUnits="userSpaceOnUse">
<stop stop-color="#D9D9D9" stop-opacity="0"/>
<stop offset="0.49" stop-color="#D9D9D9"/>
<stop offset="1" stop-color="#D9D9D9" stop-opacity="0"/>
</linearGradient>
</defs>
</svg>
